#define arrow_z_width 5
#define arrow_z_height 7
static unsigned char arrow_z_bits[] = {
   0x04, 0x04, 0x04, 0x04, 0x11, 0x0a, 0x04 };
