#define arrow_n_width 5
#define arrow_n_height 7
static unsigned char arrow_n_bits[] = {
   0x04, 0x0a, 0x11, 0x04, 0x04, 0x04, 0x04 };
