#define arrow_nw_width 6
#define arrow_nw_height 6
static unsigned char arrow_nw_bits[] = {
   0x0f, 0x01, 0x05, 0x09, 0x10, 0x20 };
