#define arrow_no_width 6
#define arrow_no_height 6
static unsigned char arrow_no_bits[] = {
   0x3c, 0x20, 0x28, 0x24, 0x02, 0x01 };
