#define arrow_zo_width 6
#define arrow_zo_height 6
static unsigned char arrow_zo_bits[] = {
   0x01, 0x02, 0x24, 0x28, 0x20, 0x3c };
