#define font_7_large_width 11
#define font_7_large_height 24
static unsigned char font_7_large_bits[] = {
   0xff, 0x07, 0xff, 0x07, 0x03, 0x06, 0x03, 0x06, 0x03, 0x06, 0x00, 0x03,
   0x00, 0x03, 0x80, 0x01, 0x80, 0x01, 0x80, 0x01, 0xc0, 0x00, 0xc0, 0x00,
   0xc0, 0x00, 0x60, 0x00, 0x60, 0x00, 0x60, 0x00, 0x30, 0x00, 0x30, 0x00,
   0x30, 0x00, 0x00, 0x00, 0x00, 0x00, 0x00, 0x00, 0x00, 0x00, 0x00, 0x00 };
