#define font_v_large_width 11
#define font_v_large_height 24
static unsigned char font_v_large_bits[] = {
   0x00, 0x00, 0x00, 0x00, 0x00, 0x00, 0x00, 0x00, 0x00, 0x00, 0x00, 0x00,
   0x03, 0x06, 0x03, 0x06, 0x03, 0x06, 0x06, 0x03, 0x06, 0x03, 0x06, 0x03,
   0x8c, 0x01, 0x8c, 0x01, 0x8c, 0x01, 0xd8, 0x00, 0xd8, 0x00, 0x70, 0x00,
   0x70, 0x00, 0x00, 0x00, 0x00, 0x00, 0x00, 0x00, 0x00, 0x00, 0x00, 0x00 };
