#define font_3_large_width 11
#define font_3_large_height 24
static unsigned char font_3_large_bits[] = {
   0xf8, 0x00, 0xfe, 0x03, 0x07, 0x07, 0x03, 0x06, 0x03, 0x06, 0x00, 0x06,
   0x00, 0x06, 0x00, 0x07, 0xf0, 0x03, 0xf0, 0x03, 0x00, 0x07, 0x00, 0x06,
   0x00, 0x06, 0x00, 0x06, 0x03, 0x06, 0x03, 0x06, 0x07, 0x07, 0xfe, 0x03,
   0xfc, 0x01, 0x00, 0x00, 0x00, 0x00, 0x00, 0x00, 0x00, 0x00, 0x00, 0x00 };
