#define font_6_large_width 11
#define font_6_large_height 24
static unsigned char font_6_large_bits[] = {
   0x60, 0x00, 0x60, 0x00, 0x30, 0x00, 0x30, 0x00, 0x18, 0x00, 0x18, 0x00,
   0x0c, 0x00, 0x0c, 0x00, 0xfe, 0x00, 0xfe, 0x03, 0x07, 0x07, 0x03, 0x06,
   0x03, 0x06, 0x03, 0x06, 0x03, 0x06, 0x03, 0x06, 0x07, 0x07, 0xfe, 0x03,
   0xfc, 0x01, 0x00, 0x00, 0x00, 0x00, 0x00, 0x00, 0x00, 0x00, 0x00, 0x00 };
