#define font_d_large_width 11
#define font_d_large_height 24
static unsigned char font_d_large_bits[] = {
   0x00, 0x00, 0x00, 0x06, 0x00, 0x06, 0x00, 0x06, 0x00, 0x06, 0x00, 0x06,
   0xf8, 0x06, 0xfe, 0x07, 0x07, 0x07, 0x03, 0x06, 0x03, 0x06, 0x03, 0x06,
   0x03, 0x06, 0x03, 0x06, 0x03, 0x06, 0x03, 0x06, 0x07, 0x07, 0xfe, 0x07,
   0xfc, 0x06, 0x00, 0x00, 0x00, 0x00, 0x00, 0x00, 0x00, 0x00, 0x00, 0x00 };
