#define font_0_small_width 6
#define font_0_small_height 10
static unsigned char font_0_small_bits[] = {
   0x1e, 0x21, 0x21, 0x21, 0x21, 0x21, 0x21, 0x21, 0x21, 0x1e };
