#define font_3_small_width 6
#define font_3_small_height 10
static unsigned char font_3_small_bits[] = {
   0x1e, 0x21, 0x20, 0x20, 0x1c, 0x20, 0x20, 0x20, 0x21, 0x1e };
