#define font_s_large_width 10
#define font_s_large_height 24
static unsigned char font_s_large_bits[] = {
   0x00, 0x00, 0x00, 0x00, 0x00, 0x00, 0x00, 0x00, 0x00, 0x00, 0x00, 0x00,
   0xfc, 0x00, 0xfe, 0x03, 0x07, 0x03, 0x03, 0x00, 0x03, 0x00, 0x3f, 0x00,
   0xfe, 0x01, 0xe0, 0x03, 0x00, 0x03, 0x00, 0x03, 0x87, 0x03, 0xff, 0x01,
   0xfc, 0x00, 0x00, 0x00, 0x00, 0x00, 0x00, 0x00, 0x00, 0x00, 0x00, 0x00 };
