#define font_2_small_width 6
#define font_2_small_height 10
static unsigned char font_2_small_bits[] = {
   0x1e, 0x21, 0x20, 0x20, 0x1e, 0x01, 0x01, 0x01, 0x01, 0x3f };
