#define font_l_large_width 5
#define font_l_large_height 24
static unsigned char font_l_large_bits[] = {
   0x00, 0x03, 0x03, 0x03, 0x03, 0x03, 0x03, 0x03, 0x03, 0x03, 0x03, 0x03,
   0x03, 0x03, 0x03, 0x03, 0x07, 0x1e, 0x1c, 0x00, 0x00, 0x00, 0x00, 0x00 };
