#define font_7_small_width 6
#define font_7_small_height 10
static unsigned char font_7_small_bits[] = {
   0x3f, 0x21, 0x20, 0x20, 0x10, 0x10, 0x08, 0x08, 0x08, 0x08 };
