#define font_f_small_width 3
#define font_f_small_height 10
static unsigned char font_f_small_bits[] = {
   0x00, 0x00, 0x00, 0x06, 0x01, 0x01, 0x07, 0x01, 0x01, 0x01 };
