#define font_z_large_width 10
#define font_z_large_height 24
static unsigned char font_z_large_bits[] = {
   0x00, 0x00, 0x00, 0x00, 0x00, 0x00, 0x00, 0x00, 0x00, 0x00, 0x00, 0x00,
   0xff, 0x03, 0xff, 0x03, 0x00, 0x03, 0x80, 0x01, 0xc0, 0x00, 0x60, 0x00,
   0x30, 0x00, 0x18, 0x00, 0x0c, 0x00, 0x06, 0x00, 0x03, 0x00, 0xff, 0x03,
   0xff, 0x03, 0x00, 0x00, 0x00, 0x00, 0x00, 0x00, 0x00, 0x00, 0x00, 0x00 };
