#define font_9_small_width 6
#define font_9_small_height 10
static unsigned char font_9_small_bits[] = {
   0x1e, 0x21, 0x21, 0x21, 0x3e, 0x20, 0x20, 0x20, 0x21, 0x1e };
