#define font_percent_large_width 14
#define font_percent_large_height 24
static unsigned char font_percent_large_bits[] = {
   0x00, 0x0c, 0x00, 0x0c, 0x1e, 0x0e, 0x3f, 0x06, 0x33, 0x07, 0x33, 0x03,
   0xbf, 0x03, 0x9e, 0x01, 0xc0, 0x01, 0xc0, 0x00, 0xe0, 0x00, 0x60, 0x1e,
   0x70, 0x3f, 0x30, 0x33, 0x38, 0x33, 0x18, 0x3f, 0x1c, 0x1e, 0x0c, 0x00,
   0x0c, 0x00, 0x00, 0x00, 0x00, 0x00, 0x00, 0x00, 0x00, 0x00, 0x00, 0x00 };
