#define font_t_small_width 3
#define font_t_small_height 10
static unsigned char font_t_small_bits[] = {
   0x00, 0x00, 0x00, 0x01, 0x01, 0x07, 0x01, 0x01, 0x01, 0x06 };
