#define font_dash_small_width 3
#define font_dash_small_height 10
static unsigned char font_dash_small_bits[] = {
   0x00, 0x00, 0x00, 0x00, 0x07, 0x00, 0x00, 0x00, 0x00, 0x00 };
