#define font_j_large_width 5
#define font_j_large_height 24
static unsigned char font_j_large_bits[] = {
   0x00, 0x18, 0x18, 0x00, 0x00, 0x00, 0x18, 0x18, 0x18, 0x18, 0x18, 0x18,
   0x18, 0x18, 0x18, 0x18, 0x18, 0x18, 0x18, 0x18, 0x18, 0x1c, 0x0f, 0x07 };
