#define font_a_large_width 11
#define font_a_large_height 24
static unsigned char font_a_large_bits[] = {
   0x00, 0x00, 0x00, 0x00, 0x00, 0x00, 0x00, 0x00, 0x00, 0x00, 0x00, 0x00,
   0xf8, 0x00, 0xfe, 0x03, 0x06, 0x07, 0x00, 0x06, 0x00, 0x06, 0xf8, 0x07,
   0xfe, 0x07, 0x07, 0x06, 0x03, 0x06, 0x03, 0x06, 0x07, 0x07, 0xfe, 0x07,
   0xf8, 0x06, 0x00, 0x00, 0x00, 0x00, 0x00, 0x00, 0x00, 0x00, 0x00, 0x00 };
