#define font_6_small_width 6
#define font_6_small_height 10
static unsigned char font_6_small_bits[] = {
   0x1e, 0x21, 0x01, 0x01, 0x1f, 0x21, 0x21, 0x21, 0x21, 0x1e };
