#define font_b_small_width 4
#define font_b_small_height 10
static unsigned char font_b_small_bits[] = {
   0x00, 0x00, 0x00, 0x01, 0x01, 0x01, 0x07, 0x09, 0x09, 0x07 };
