#define font_0_large_width 12
#define font_0_large_height 24
static unsigned char font_0_large_bits[] = {
   0xf0, 0x00, 0xfc, 0x03, 0x0e, 0x07, 0x07, 0x0e, 0x03, 0x0c, 0x03, 0x0c,
   0x03, 0x0c, 0x03, 0x0c, 0x03, 0x0c, 0x03, 0x0c, 0x03, 0x0c, 0x03, 0x0c,
   0x03, 0x0c, 0x03, 0x0c, 0x03, 0x0c, 0x07, 0x0e, 0x0e, 0x07, 0xfc, 0x03,
   0xf0, 0x00, 0x00, 0x00, 0x00, 0x00, 0x00, 0x00, 0x00, 0x00, 0x00, 0x00 };
