#define font_5_small_width 6
#define font_5_small_height 10
static unsigned char font_5_small_bits[] = {
   0x3f, 0x01, 0x01, 0x01, 0x1f, 0x20, 0x20, 0x20, 0x21, 0x1e };
