#define font_C_small_width 7
#define font_C_small_height 10
static unsigned char font_C_small_bits[] = {
   0x3c, 0x42, 0x01, 0x01, 0x01, 0x01, 0x01, 0x01, 0x42, 0x3c };
