#define font_5_large_width 11
#define font_5_large_height 24
static unsigned char font_5_large_bits[] = {
   0xff, 0x07, 0xff, 0x07, 0x03, 0x00, 0x03, 0x00, 0x03, 0x00, 0x03, 0x00,
   0xfb, 0x00, 0xff, 0x03, 0x07, 0x07, 0x03, 0x06, 0x00, 0x06, 0x00, 0x06,
   0x00, 0x06, 0x00, 0x06, 0x03, 0x06, 0x03, 0x06, 0x07, 0x07, 0xfe, 0x03,
   0xfc, 0x01, 0x00, 0x00, 0x00, 0x00, 0x00, 0x00, 0x00, 0x00, 0x00, 0x00 };
