#define font_9_large_width 11
#define font_9_large_height 24
static unsigned char font_9_large_bits[] = {
   0xf8, 0x00, 0xfe, 0x03, 0x07, 0x07, 0x03, 0x06, 0x03, 0x06, 0x03, 0x06,
   0x03, 0x06, 0x03, 0x06, 0x07, 0x07, 0xfe, 0x03, 0xfc, 0x03, 0x80, 0x01,
   0x80, 0x01, 0xc0, 0x00, 0xc0, 0x00, 0x60, 0x00, 0x60, 0x00, 0x30, 0x00,
   0x30, 0x00, 0x00, 0x00, 0x00, 0x00, 0x00, 0x00, 0x00, 0x00, 0x00, 0x00 };
