#define font_R_large_width 13
#define font_R_large_height 24
static unsigned char font_R_large_bits[] = {
   0xff, 0x07, 0xff, 0x0f, 0x03, 0x1c, 0x03, 0x18, 0x03, 0x18, 0x03, 0x18,
   0x03, 0x18, 0x03, 0x18, 0x03, 0x1c, 0xff, 0x0f, 0xff, 0x07, 0x03, 0x03,
   0x03, 0x07, 0x03, 0x06, 0x03, 0x0e, 0x03, 0x0c, 0x03, 0x1c, 0x03, 0x18,
   0x03, 0x18, 0x00, 0x00, 0x00, 0x00, 0x00, 0x00, 0x00, 0x00, 0x00, 0x00 };
