#define font_4_large_width 13
#define font_4_large_height 24
static unsigned char font_4_large_bits[] = {
   0xc0, 0x00, 0xc0, 0x00, 0xe0, 0x00, 0x60, 0x00, 0x70, 0x00, 0x30, 0x00,
   0x38, 0x00, 0x18, 0x00, 0x1c, 0x06, 0x0c, 0x06, 0x0e, 0x06, 0x06, 0x06,
   0x07, 0x06, 0xff, 0x1f, 0xff, 0x1f, 0x00, 0x06, 0x00, 0x06, 0x00, 0x06,
   0x00, 0x06, 0x00, 0x00, 0x00, 0x00, 0x00, 0x00, 0x00, 0x00, 0x00, 0x00 };
