#define font_i_large_width 2
#define font_i_large_height 24
static unsigned char font_i_large_bits[] = {
   0x00, 0x03, 0x03, 0x00, 0x00, 0x00, 0x03, 0x03, 0x03, 0x03, 0x03, 0x03,
   0x03, 0x03, 0x03, 0x03, 0x03, 0x03, 0x03, 0x00, 0x00, 0x00, 0x00, 0x00 };
