#define font_p_large_width 11
#define font_p_large_height 24
static unsigned char font_p_large_bits[] = {
   0x00, 0x00, 0x00, 0x00, 0x00, 0x00, 0x00, 0x00, 0x00, 0x00, 0x00, 0x00,
   0xfb, 0x00, 0xff, 0x03, 0x07, 0x07, 0x03, 0x06, 0x03, 0x06, 0x03, 0x06,
   0x03, 0x06, 0x03, 0x06, 0x03, 0x06, 0x03, 0x06, 0x07, 0x07, 0xff, 0x03,
   0xfb, 0x01, 0x03, 0x00, 0x03, 0x00, 0x03, 0x00, 0x03, 0x00, 0x03, 0x00 };
