#define font_m_small_width 7
#define font_m_small_height 10
static unsigned char font_m_small_bits[] = {
   0x00, 0x00, 0x00, 0x00, 0x00, 0x37, 0x49, 0x49, 0x49, 0x49 };
