#define font_H_large_width 13
#define font_H_large_height 24
static unsigned char font_H_large_bits[] = {
   0x03, 0x18, 0x03, 0x18, 0x03, 0x18, 0x03, 0x18, 0x03, 0x18, 0x03, 0x18,
   0x03, 0x18, 0x03, 0x18, 0x03, 0x18, 0xff, 0x1f, 0xff, 0x1f, 0x03, 0x18,
   0x03, 0x18, 0x03, 0x18, 0x03, 0x18, 0x03, 0x18, 0x03, 0x18, 0x03, 0x18,
   0x03, 0x18, 0x00, 0x00, 0x00, 0x00, 0x00, 0x00, 0x00, 0x00, 0x00, 0x00 };
