#define font_C_large_width 13
#define font_C_large_height 24
static unsigned char font_C_large_bits[] = {
   0xe0, 0x03, 0xf8, 0x0f, 0x3c, 0x1c, 0x0e, 0x18, 0x06, 0x00, 0x07, 0x00,
   0x03, 0x00, 0x03, 0x00, 0x03, 0x00, 0x03, 0x00, 0x03, 0x00, 0x03, 0x00,
   0x03, 0x00, 0x07, 0x00, 0x06, 0x00, 0x0e, 0x18, 0x3c, 0x1c, 0xf8, 0x0f,
   0xe0, 0x03, 0x00, 0x00, 0x00, 0x00, 0x00, 0x00, 0x00, 0x00, 0x00, 0x00 };
