#define font_4_small_width 6
#define font_4_small_height 10
static unsigned char font_4_small_bits[] = {
   0x21, 0x21, 0x21, 0x21, 0x3e, 0x20, 0x20, 0x20, 0x20, 0x20 };
