#define font_g_large_width 10
#define font_g_large_height 24
static unsigned char font_g_large_bits[] = {
   0x00, 0x00, 0x00, 0x00, 0x00, 0x00, 0x00, 0x00, 0x00, 0x00, 0x00, 0x00,
   0x78, 0x03, 0xfe, 0x03, 0x87, 0x03, 0x03, 0x03, 0x03, 0x03, 0x03, 0x03,
   0x03, 0x03, 0x03, 0x03, 0x03, 0x03, 0x03, 0x03, 0x87, 0x03, 0xfe, 0x03,
   0x7c, 0x03, 0x00, 0x03, 0x00, 0x03, 0x86, 0x03, 0xfe, 0x01, 0x78, 0x00 };
