#define font_k_large_width 9
#define font_k_large_height 24
static unsigned char font_k_large_bits[] = {
   0x00, 0x00, 0x03, 0x00, 0x03, 0x00, 0x03, 0x00, 0x03, 0x00, 0x03, 0x00,
   0xc3, 0x00, 0xe3, 0x00, 0x73, 0x00, 0x3b, 0x00, 0x1f, 0x00, 0x0f, 0x00,
   0x0f, 0x00, 0x1f, 0x00, 0x3b, 0x00, 0x73, 0x00, 0xe3, 0x00, 0xc3, 0x01,
   0x83, 0x01, 0x00, 0x00, 0x00, 0x00, 0x00, 0x00, 0x00, 0x00, 0x00, 0x00 };
