#define font_r_large_width 8
#define font_r_large_height 24
static unsigned char font_r_large_bits[] = {
   0x00, 0x00, 0x00, 0x00, 0x00, 0x00, 0x3b, 0xff, 0xc7, 0x03, 0x03, 0x03,
   0x03, 0x03, 0x03, 0x03, 0x03, 0x03, 0x03, 0x00, 0x00, 0x00, 0x00, 0x00 };
