#define font_1_small_width 2
#define font_1_small_height 10
static unsigned char font_1_small_bits[] = {
   0x02, 0x03, 0x02, 0x02, 0x02, 0x02, 0x02, 0x02, 0x02, 0x02 };
