#define font_degree_large_width 8
#define font_degree_large_height 24
static unsigned char font_degree_large_bits[] = {
   0x3c, 0x7e, 0xe7, 0xc3, 0xc3, 0xe7, 0x7e, 0x3c, 0x00, 0x00, 0x00, 0x00,
   0x00, 0x00, 0x00, 0x00, 0x00, 0x00, 0x00, 0x00, 0x00, 0x00, 0x00, 0x00 };
