#define font_t_large_width 6
#define font_t_large_height 24
static unsigned char font_t_large_bits[] = {
   0x00, 0x00, 0x00, 0x06, 0x06, 0x06, 0x3f, 0x3f, 0x06, 0x06, 0x06, 0x06,
   0x06, 0x06, 0x06, 0x06, 0x06, 0x3e, 0x3c, 0x00, 0x00, 0x00, 0x00, 0x00 };
