#define font_f_large_width 6
#define font_f_large_height 24
static unsigned char font_f_large_bits[] = {
   0x00, 0x3c, 0x3e, 0x06, 0x06, 0x06, 0x3f, 0x3f, 0x06, 0x06, 0x06, 0x06,
   0x06, 0x06, 0x06, 0x06, 0x06, 0x06, 0x06, 0x00, 0x00, 0x00, 0x00, 0x00 };
