#define graphics_6_width 11
#define graphics_6_height 19
static unsigned char graphics_6_bits[] = {
   0x60, 0x00, 0x70, 0x00, 0x30, 0x00, 0x38, 0x00, 0x18, 0x00, 0x1c, 0x00,
   0x0c, 0x00, 0x0e, 0x00, 0xfe, 0x01, 0xff, 0x03, 0x07, 0x07, 0x03, 0x06,
   0x03, 0x06, 0x03, 0x06, 0x03, 0x06, 0x03, 0x06, 0x07, 0x07, 0xfe, 0x03,
   0xfc, 0x01 };
