#define graphics_text_degreecelcius_width 24
#define graphics_text_degreecelcius_height 19
static unsigned char graphics_text_degreecelcius_bits[] = {
   0x3c, 0x80, 0x3f, 0x7e, 0xc0, 0x7f, 0xe7, 0xe0, 0xe1, 0xc3, 0x70, 0xc0,
   0xc3, 0x30, 0x00, 0xe7, 0x38, 0x00, 0x7e, 0x38, 0x00, 0x3c, 0x18, 0x00,
   0x00, 0x18, 0x00, 0x00, 0x18, 0x00, 0x00, 0x18, 0x00, 0x00, 0x18, 0x00,
   0x00, 0x38, 0x00, 0x00, 0x38, 0x00, 0x00, 0x30, 0x00, 0x00, 0x70, 0xc0,
   0x00, 0xe0, 0xe1, 0x00, 0xc0, 0x7f, 0x00, 0x80, 0x3f };
