#define graphics_icon_co2_width 19
#define graphics_icon_co2_height 19
static unsigned char graphics_icon_co2_bits[] = {
   0x00, 0x80, 0x03, 0x00, 0x40, 0x04, 0x00, 0x40, 0x04, 0x00, 0x50, 0x04,
   0x00, 0x88, 0x03, 0x00, 0x04, 0x00, 0x00, 0x80, 0x00, 0x00, 0x47, 0x00,
   0x80, 0x2f, 0x00, 0x80, 0x0f, 0x00, 0xa0, 0x0f, 0x00, 0x10, 0x07, 0x00,
   0x08, 0x00, 0x00, 0x00, 0x01, 0x00, 0x8e, 0x00, 0x00, 0x51, 0x00, 0x00,
   0x11, 0x00, 0x00, 0x11, 0x00, 0x00, 0x0e, 0x00, 0x00 };
