#define graphics_4_width 12
#define graphics_4_height 19
static unsigned char graphics_4_bits[] = {
   0xc0, 0x00, 0xc0, 0x00, 0xe0, 0x00, 0x60, 0x00, 0x70, 0x00, 0x30, 0x00,
   0x38, 0x00, 0x18, 0x00, 0x1c, 0x03, 0x0c, 0x03, 0x0e, 0x03, 0x06, 0x03,
   0x07, 0x03, 0xff, 0x0f, 0xff, 0x0f, 0x00, 0x03, 0x00, 0x03, 0x00, 0x03,
   0x00, 0x03 };
