#define graphics_5_width 11
#define graphics_5_height 19
static unsigned char graphics_5_bits[] = {
   0xff, 0x07, 0xff, 0x07, 0x03, 0x00, 0x03, 0x00, 0x03, 0x00, 0x03, 0x00,
   0xfb, 0x01, 0xff, 0x03, 0x07, 0x07, 0x03, 0x06, 0x00, 0x06, 0x00, 0x06,
   0x00, 0x06, 0x00, 0x06, 0x03, 0x06, 0x03, 0x06, 0x07, 0x07, 0xfe, 0x03,
   0xfc, 0x01 };
