#define graphics_9_width 11
#define graphics_9_height 19
static unsigned char graphics_9_bits[] = {
   0xfc, 0x01, 0xfe, 0x03, 0x07, 0x07, 0x03, 0x06, 0x03, 0x06, 0x03, 0x06,
   0x03, 0x06, 0x03, 0x06, 0x07, 0x07, 0xfe, 0x07, 0xfc, 0x03, 0x80, 0x03,
   0x80, 0x01, 0xc0, 0x01, 0xc0, 0x00, 0xe0, 0x00, 0x60, 0x00, 0x70, 0x00,
   0x30, 0x00 };
