#define graphics_2_width 11
#define graphics_2_height 19
static unsigned char graphics_2_bits[] = {
   0xfc, 0x01, 0xfe, 0x03, 0x07, 0x07, 0x03, 0x06, 0x00, 0x06, 0x00, 0x06,
   0x00, 0x06, 0x00, 0x06, 0x00, 0x07, 0x80, 0x03, 0xc0, 0x01, 0xe0, 0x00,
   0x70, 0x00, 0x38, 0x00, 0x1c, 0x00, 0x0e, 0x00, 0x07, 0x00, 0xff, 0x07,
   0xff, 0x07 };
