#define graphics_1_width 6
#define graphics_1_height 19
static unsigned char graphics_1_bits[] = {
   0x3c, 0x3e, 0x37, 0x33, 0x30, 0x30, 0x30, 0x30, 0x30, 0x30, 0x30, 0x30,
   0x30, 0x30, 0x30, 0x30, 0x30, 0x30, 0x30 };
