#define icon_temp_width 9
#define icon_temp_height 21
static unsigned char icon_temp_bits[] = {
   0x38, 0x00, 0x44, 0x00, 0x44, 0x00, 0x44, 0x00, 0x44, 0x00, 0x44, 0x00,
   0x44, 0x00, 0x44, 0x00, 0x54, 0x00, 0x54, 0x00, 0x54, 0x00, 0x54, 0x00,
   0x54, 0x00, 0x92, 0x00, 0x39, 0x01, 0x7d, 0x01, 0x7d, 0x01, 0x7d, 0x01,
   0x39, 0x01, 0x82, 0x00, 0x7c, 0x00 };
