#define icon_pres_width 15
#define icon_pres_height 15
static unsigned char icon_pres_bits[] = {
   0xe0, 0x03, 0x98, 0x0c, 0x04, 0x10, 0x0a, 0x28, 0x02, 0x20, 0x01, 0x40,
   0x01, 0x42, 0x03, 0x61, 0x81, 0x40, 0xf1, 0x47, 0x02, 0x20, 0xca, 0x29,
   0x04, 0x10, 0x98, 0x0c, 0xe0, 0x03 };
