#define icon_humid_width 9
#define icon_humid_height 12
static unsigned char icon_humid_bits[] = {
   0x10, 0x00, 0x28, 0x00, 0x44, 0x00, 0x44, 0x00, 0x82, 0x00, 0x82, 0x00,
   0x01, 0x01, 0x01, 0x01, 0x01, 0x01, 0x83, 0x01, 0xc6, 0x00, 0x7c, 0x00 };
