#define nowifi_width 38
#define nowifi_height 38
static unsigned char nowifi_bits[] = {
   0x00, 0x00, 0x00, 0x00, 0x00, 0x00, 0x00, 0x00, 0x00, 0x00, 0x00, 0x00,
   0x00, 0x00, 0x00, 0x00, 0x00, 0x00, 0x00, 0x00, 0x00, 0x00, 0x00, 0x00,
   0x00, 0x00, 0x00, 0x00, 0x00, 0x00, 0x60, 0x00, 0x00, 0x00, 0x00, 0xe0,
   0x00, 0x00, 0x00, 0x00, 0xc0, 0x01, 0x00, 0x00, 0x00, 0x80, 0x03, 0x00,
   0x00, 0x00, 0x00, 0x07, 0x00, 0x00, 0x00, 0x00, 0x0e, 0x00, 0x00, 0x00,
   0x00, 0xdc, 0xff, 0x00, 0x00, 0x00, 0xb8, 0xff, 0x07, 0x00, 0x00, 0x76,
   0x80, 0x1f, 0x00, 0x80, 0xef, 0x00, 0x7c, 0x00, 0xc0, 0xc3, 0x01, 0xf0,
   0x00, 0xc0, 0x80, 0x03, 0xc0, 0x00, 0x00, 0x00, 0x77, 0x00, 0x00, 0x00,
   0xf0, 0xee, 0x03, 0x00, 0x00, 0xfc, 0x9d, 0x0f, 0x00, 0x00, 0x1e, 0x38,
   0x1e, 0x00, 0x00, 0x06, 0x70, 0x18, 0x00, 0x00, 0x00, 0xe0, 0x00, 0x00,
   0x00, 0x00, 0xdf, 0x01, 0x00, 0x00, 0xc0, 0xbf, 0x03, 0x00, 0x00, 0xf0,
   0x61, 0x07, 0x00, 0x00, 0x70, 0x00, 0x0e, 0x00, 0x00, 0x00, 0x00, 0x1c,
   0x00, 0x00, 0x00, 0x00, 0x38, 0x00, 0x00, 0x00, 0x00, 0x70, 0x00, 0x00,
   0x00, 0x0c, 0xe0, 0x00, 0x00, 0x00, 0x1e, 0xc0, 0x00, 0x00, 0x00, 0x1e,
   0x00, 0x00, 0x00, 0x00, 0x0c, 0x00, 0x00, 0x00, 0x00, 0x00, 0x00, 0x00,
   0x00, 0x00, 0x00, 0x00, 0x00, 0x00, 0x00, 0x00, 0x00, 0x00 };
