#define weather_unknown_width 38
#define weather_unknown_height 38
static unsigned char weather_unknown_bits[] = {
   0x00, 0x00, 0x00, 0x00, 0x00, 0x00, 0x00, 0x00, 0x00, 0x00, 0x00, 0x00,
   0x00, 0x00, 0x00, 0x00, 0x00, 0x00, 0x00, 0x00, 0x00, 0x00, 0x00, 0x00,
   0x00, 0x00, 0x00, 0x00, 0x00, 0x00, 0x00, 0x00, 0x00, 0x00, 0x00, 0x00,
   0x00, 0xfc, 0x01, 0x00, 0x00, 0x00, 0xff, 0x07, 0x00, 0x00, 0x80, 0x07,
   0x0f, 0x00, 0x00, 0xc0, 0x01, 0x1c, 0x00, 0x00, 0xe0, 0x00, 0x38, 0x00,
   0x00, 0x7c, 0x78, 0x30, 0x00, 0x00, 0x7f, 0xfc, 0x70, 0x00, 0x80, 0x07,
   0xce, 0x61, 0x00, 0xc0, 0x01, 0x86, 0x61, 0x00, 0xe0, 0x00, 0x80, 0x61,
   0x00, 0x60, 0x00, 0xc0, 0x71, 0x00, 0x70, 0x00, 0xe0, 0xf0, 0x00, 0x30,
   0x00, 0x70, 0xe0, 0x01, 0x30, 0x00, 0x30, 0x80, 0x01, 0x30, 0x00, 0x30,
   0x80, 0x03, 0x70, 0x00, 0x00, 0x00, 0x03, 0x60, 0x00, 0x30, 0x00, 0x03,
   0xe0, 0x00, 0x30, 0x80, 0x03, 0xc0, 0x01, 0x00, 0x80, 0x01, 0x80, 0x07,
   0x00, 0xe0, 0x01, 0x00, 0xff, 0xff, 0xff, 0x00, 0x00, 0xfc, 0xff, 0x3f,
   0x00, 0x00, 0x00, 0x00, 0x00, 0x00, 0x00, 0x00, 0x00, 0x00, 0x00, 0x00,
   0x00, 0x00, 0x00, 0x00, 0x00, 0x00, 0x00, 0x00, 0x00, 0x00, 0x00, 0x00,
   0x00, 0x00, 0x00, 0x00, 0x00, 0x00, 0x00, 0x00, 0x00, 0x00, 0x00, 0x00,
   0x00, 0x00, 0x00, 0x00, 0x00, 0x00, 0x00, 0x00, 0x00, 0x00 };
