#define weather_snow_width 38
#define weather_snow_height 38
static unsigned char weather_snow_bits[] = {
   0x00, 0x00, 0x00, 0x00, 0x00, 0x00, 0x00, 0x00, 0x00, 0x00, 0x00, 0x00,
   0x00, 0x00, 0x00, 0x00, 0x00, 0x00, 0x00, 0x00, 0x00, 0x00, 0x00, 0x00,
   0x00, 0x00, 0x00, 0x00, 0x00, 0x00, 0x00, 0x00, 0x00, 0x00, 0x00, 0x00,
   0x00, 0xfc, 0x01, 0x00, 0x00, 0x00, 0xff, 0x07, 0x00, 0x00, 0x80, 0x07,
   0x0f, 0x00, 0x00, 0xc0, 0x01, 0x1c, 0x00, 0x00, 0xe0, 0x00, 0x38, 0x00,
   0x00, 0x7c, 0x00, 0x30, 0x00, 0x00, 0xff, 0x01, 0x70, 0x00, 0x80, 0xc7,
   0x03, 0x60, 0x00, 0xc0, 0x01, 0x03, 0x60, 0x00, 0xe0, 0x00, 0x00, 0x60,
   0x00, 0x60, 0x00, 0x00, 0x70, 0x00, 0x70, 0x00, 0x00, 0xf0, 0x00, 0x30,
   0x00, 0x00, 0xe0, 0x01, 0x30, 0x00, 0x00, 0x80, 0x01, 0x30, 0x00, 0x06,
   0x80, 0x03, 0x70, 0x00, 0x06, 0x00, 0x03, 0x60, 0x80, 0x1f, 0x00, 0x03,
   0xe0, 0x80, 0x1f, 0x80, 0x03, 0xc0, 0x01, 0x06, 0x80, 0x01, 0x80, 0x07,
   0xc6, 0xe0, 0x01, 0x00, 0x1f, 0xc0, 0xf8, 0x00, 0x00, 0x9c, 0xf1, 0x3b,
   0x00, 0x00, 0x80, 0xf1, 0x03, 0x00, 0x00, 0xe0, 0xc7, 0x00, 0x00, 0x00,
   0xe0, 0xc7, 0x00, 0x00, 0x00, 0x80, 0x01, 0x00, 0x00, 0x00, 0x80, 0x01,
   0x00, 0x00, 0x00, 0x00, 0x00, 0x00, 0x00, 0x00, 0x00, 0x00, 0x00, 0x00,
   0x00, 0x00, 0x00, 0x00, 0x00, 0x00, 0x00, 0x00, 0x00, 0x00 };
