#define weather_night_width 38
#define weather_night_height 38
static unsigned char weather_night_bits[] = {
   0x00, 0x00, 0x00, 0x00, 0x00, 0x00, 0x00, 0x00, 0x00, 0x00, 0x00, 0x00,
   0x00, 0x00, 0x00, 0x00, 0x00, 0x00, 0x00, 0x00, 0x00, 0x00, 0x00, 0x00,
   0x00, 0x00, 0x00, 0x00, 0x00, 0x00, 0x00, 0x00, 0x00, 0x00, 0x00, 0x00,
   0x00, 0x00, 0x00, 0x00, 0x00, 0x00, 0x00, 0x00, 0x00, 0x00, 0x00, 0x00,
   0x00, 0x00, 0x00, 0x00, 0x00, 0x00, 0x00, 0x00, 0x00, 0x00, 0x00, 0x00,
   0x00, 0xc0, 0x03, 0x00, 0x00, 0x00, 0xe0, 0x03, 0x00, 0x00, 0x00, 0x70,
   0x03, 0x00, 0x00, 0x00, 0x38, 0x03, 0x00, 0x00, 0x00, 0x18, 0x07, 0x00,
   0x00, 0x00, 0x1c, 0x06, 0x00, 0x00, 0x00, 0x0c, 0x0e, 0x00, 0x00, 0x00,
   0x0c, 0x1c, 0x00, 0x00, 0x00, 0x0c, 0x78, 0x00, 0x00, 0x00, 0x0c, 0xf0,
   0x07, 0x00, 0x00, 0x1c, 0xc0, 0x07, 0x00, 0x00, 0x18, 0x00, 0x07, 0x00,
   0x00, 0x38, 0x00, 0x03, 0x00, 0x00, 0x70, 0x80, 0x03, 0x00, 0x00, 0xe0,
   0xe1, 0x01, 0x00, 0x00, 0xc0, 0xff, 0x00, 0x00, 0x00, 0x00, 0x3f, 0x00,
   0x00, 0x00, 0x00, 0x00, 0x00, 0x00, 0x00, 0x00, 0x00, 0x00, 0x00, 0x00,
   0x00, 0x00, 0x00, 0x00, 0x00, 0x00, 0x00, 0x00, 0x00, 0x00, 0x00, 0x00,
   0x00, 0x00, 0x00, 0x00, 0x00, 0x00, 0x00, 0x00, 0x00, 0x00, 0x00, 0x00,
   0x00, 0x00, 0x00, 0x00, 0x00, 0x00, 0x00, 0x00, 0x00, 0x00 };
